<mxfile host="Electron" agent="Mozilla/5.0 (Windows NT 10.0; Win64; x64) AppleWebKit/537.36 (KHTML, like Gecko) draw.io/24.7.17 Chrome/128.0.6613.36 Electron/32.0.1 Safari/537.36" version="24.7.17">
  <diagram id="RY06dg6TurpcGWkUvZI3" name="ページ1">
    <mxGraphModel dx="2074" dy="836" grid="1" gridSize="10" guides="1" tooltips="1" connect="1" arrows="1" fold="1" page="1" pageScale="1" pageWidth="827" pageHeight="1169" math="0" shadow="0">
      <root>
        <mxCell id="0" />
        <mxCell id="1" parent="0" />
        <mxCell id="xFIkCCg_5AFE3bHfhWyh-2" value="&lt;font style=&quot;font-size: 18px&quot;&gt;IX-3110&lt;/font&gt;" style="text;html=1;strokeColor=none;fillColor=none;align=center;verticalAlign=middle;whiteSpace=wrap;rounded=0;" parent="1" vertex="1">
          <mxGeometry x="280" y="678" width="100" height="20" as="geometry" />
        </mxCell>
        <mxCell id="xFIkCCg_5AFE3bHfhWyh-6" value="" style="endArrow=none;html=1;strokeColor=#00FF00;" parent="1" edge="1">
          <mxGeometry width="50" height="50" relative="1" as="geometry">
            <mxPoint x="150" y="919" as="sourcePoint" />
            <mxPoint x="2160" y="920" as="targetPoint" />
          </mxGeometry>
        </mxCell>
        <mxCell id="xFIkCCg_5AFE3bHfhWyh-7" value="" style="endArrow=none;html=1;fillColor=#33FF33;strokeColor=#0000ff;" parent="1" edge="1">
          <mxGeometry width="50" height="50" relative="1" as="geometry">
            <mxPoint x="309" y="617" as="sourcePoint" />
            <mxPoint x="310" y="400" as="targetPoint" />
          </mxGeometry>
        </mxCell>
        <mxCell id="xFIkCCg_5AFE3bHfhWyh-9" value="&lt;font style=&quot;font-size: 18px&quot;&gt;management segment&lt;br&gt;192.168.10.0/24&lt;/font&gt;" style="text;html=1;strokeColor=none;fillColor=none;align=center;verticalAlign=middle;whiteSpace=wrap;rounded=0;" parent="1" vertex="1">
          <mxGeometry x="150" y="240" width="190" height="20" as="geometry" />
        </mxCell>
        <mxCell id="xFIkCCg_5AFE3bHfhWyh-11" value="&lt;font style=&quot;font-size: 18px&quot;&gt;service segment&lt;br&gt;192.168.15.0/24&lt;/font&gt;" style="text;html=1;strokeColor=none;fillColor=none;align=center;verticalAlign=middle;whiteSpace=wrap;rounded=0;" parent="1" vertex="1">
          <mxGeometry x="150" y="343" width="150" height="20" as="geometry" />
        </mxCell>
        <mxCell id="xFIkCCg_5AFE3bHfhWyh-14" value="&lt;font style=&quot;font-size: 18px&quot;&gt;SAN segment&lt;br&gt;192.168.6.0/24&lt;/font&gt;" style="text;html=1;strokeColor=none;fillColor=none;align=center;verticalAlign=middle;whiteSpace=wrap;rounded=0;" parent="1" vertex="1">
          <mxGeometry x="150" y="875" width="120" height="20" as="geometry" />
        </mxCell>
        <mxCell id="xFIkCCg_5AFE3bHfhWyh-15" value="" style="endArrow=none;html=1;strokeColor=#0000ff;" parent="1" edge="1">
          <mxGeometry width="50" height="50" relative="1" as="geometry">
            <mxPoint x="150" y="399" as="sourcePoint" />
            <mxPoint x="2160" y="400" as="targetPoint" />
          </mxGeometry>
        </mxCell>
        <mxCell id="xFIkCCg_5AFE3bHfhWyh-17" value="&lt;b&gt;&lt;font style=&quot;font-size: 14px&quot;&gt;onp-proxmox01-SV&lt;/font&gt;&lt;/b&gt;" style="rounded=0;whiteSpace=wrap;html=1;align=center;" parent="1" vertex="1">
          <mxGeometry x="670" y="600" width="198" height="80" as="geometry" />
        </mxCell>
        <mxCell id="xFIkCCg_5AFE3bHfhWyh-18" value="&lt;b&gt;&lt;font style=&quot;font-size: 14px&quot;&gt;onp-proxmox02-SV&lt;/font&gt;&lt;/b&gt;" style="rounded=0;whiteSpace=wrap;html=1;align=center;" parent="1" vertex="1">
          <mxGeometry x="910" y="600" width="199.5" height="80" as="geometry" />
        </mxCell>
        <mxCell id="xFIkCCg_5AFE3bHfhWyh-19" value="&lt;b&gt;&lt;font style=&quot;font-size: 14px&quot;&gt;onp-proxmox03-SV&lt;/font&gt;&lt;/b&gt;" style="rounded=0;whiteSpace=wrap;html=1;align=center;" parent="1" vertex="1">
          <mxGeometry x="1150" y="600" width="200" height="80" as="geometry" />
        </mxCell>
        <mxCell id="xFIkCCg_5AFE3bHfhWyh-20" value="" style="endArrow=none;html=1;exitX=0.208;exitY=0;exitDx=0;exitDy=0;strokeColor=#0000ff;exitPerimeter=0;" parent="1" source="xFIkCCg_5AFE3bHfhWyh-33" edge="1">
          <mxGeometry width="50" height="50" relative="1" as="geometry">
            <mxPoint x="442" y="403" as="sourcePoint" />
            <mxPoint x="470" y="400" as="targetPoint" />
          </mxGeometry>
        </mxCell>
        <mxCell id="xFIkCCg_5AFE3bHfhWyh-23" value="&lt;font style=&quot;font-size: 18px&quot;&gt;.141&lt;/font&gt;" style="text;html=1;strokeColor=none;fillColor=none;align=left;verticalAlign=middle;whiteSpace=wrap;rounded=0;" parent="1" vertex="1">
          <mxGeometry x="716.5" y="410" width="51" height="20" as="geometry" />
        </mxCell>
        <mxCell id="xFIkCCg_5AFE3bHfhWyh-24" value="&lt;font style=&quot;font-size: 18px&quot;&gt;.142&lt;/font&gt;" style="text;html=1;strokeColor=none;fillColor=none;align=left;verticalAlign=middle;whiteSpace=wrap;rounded=0;" parent="1" vertex="1">
          <mxGeometry x="961" y="410" width="51" height="20" as="geometry" />
        </mxCell>
        <mxCell id="xFIkCCg_5AFE3bHfhWyh-25" value="&lt;font style=&quot;font-size: 18px&quot;&gt;.143&lt;/font&gt;" style="text;html=1;strokeColor=none;fillColor=none;align=left;verticalAlign=middle;whiteSpace=wrap;rounded=0;" parent="1" vertex="1">
          <mxGeometry x="1199" y="410" width="51" height="20" as="geometry" />
        </mxCell>
        <mxCell id="xFIkCCg_5AFE3bHfhWyh-43" value="&lt;span style=&quot;font-size: 14px&quot;&gt;&lt;b&gt;DNS-Server&lt;/b&gt;&lt;/span&gt;" style="rounded=0;whiteSpace=wrap;html=1;align=center;" parent="1" vertex="1">
          <mxGeometry x="1400" y="597.75" width="200" height="80" as="geometry" />
        </mxCell>
        <mxCell id="xFIkCCg_5AFE3bHfhWyh-50" value="&lt;span style=&quot;font-size: 14px&quot;&gt;&lt;b&gt;SQL-Server&lt;/b&gt;&lt;/span&gt;" style="rounded=0;whiteSpace=wrap;html=1;align=center;" parent="1" vertex="1">
          <mxGeometry x="1630" y="601" width="200" height="80" as="geometry" />
        </mxCell>
        <mxCell id="qOYS4bg1YTJCPEo-Tq0f-9" value="" style="endArrow=none;html=1;rounded=0;fillColor=#e51400;strokeColor=#ff0000;" edge="1" parent="1">
          <mxGeometry width="50" height="50" relative="1" as="geometry">
            <mxPoint x="150" y="280" as="sourcePoint" />
            <mxPoint x="2160" y="280" as="targetPoint" />
          </mxGeometry>
        </mxCell>
        <mxCell id="qOYS4bg1YTJCPEo-Tq0f-16" value="&lt;font style=&quot;font-size: 18px&quot;&gt;.141&lt;/font&gt;" style="text;html=1;strokeColor=none;fillColor=none;align=left;verticalAlign=middle;whiteSpace=wrap;rounded=0;" vertex="1" parent="1">
          <mxGeometry x="797" y="290" width="51" height="20" as="geometry" />
        </mxCell>
        <mxCell id="qOYS4bg1YTJCPEo-Tq0f-17" value="&lt;font style=&quot;font-size: 18px&quot;&gt;.142&lt;/font&gt;" style="text;html=1;strokeColor=none;fillColor=none;align=left;verticalAlign=middle;whiteSpace=wrap;rounded=0;" vertex="1" parent="1">
          <mxGeometry x="1040" y="290" width="51" height="20" as="geometry" />
        </mxCell>
        <mxCell id="qOYS4bg1YTJCPEo-Tq0f-18" value="&lt;font style=&quot;font-size: 18px&quot;&gt;.143&lt;/font&gt;" style="text;html=1;strokeColor=none;fillColor=none;align=left;verticalAlign=middle;whiteSpace=wrap;rounded=0;" vertex="1" parent="1">
          <mxGeometry x="1280" y="290" width="51" height="20" as="geometry" />
        </mxCell>
        <mxCell id="qOYS4bg1YTJCPEo-Tq0f-22" value="&lt;font style=&quot;font-size: 18px&quot;&gt;.1&lt;/font&gt;" style="text;html=1;strokeColor=none;fillColor=none;align=left;verticalAlign=middle;whiteSpace=wrap;rounded=0;" vertex="1" parent="1">
          <mxGeometry x="320" y="410" width="51" height="20" as="geometry" />
        </mxCell>
        <mxCell id="qOYS4bg1YTJCPEo-Tq0f-23" value="&lt;font style=&quot;font-size: 18px&quot;&gt;.1&lt;/font&gt;" style="text;html=1;strokeColor=none;fillColor=none;align=left;verticalAlign=middle;whiteSpace=wrap;rounded=0;" vertex="1" parent="1">
          <mxGeometry x="360" y="290" width="51" height="20" as="geometry" />
        </mxCell>
        <mxCell id="xFIkCCg_5AFE3bHfhWyh-1" value="" style="shape=mxgraph.cisco.routers.router;html=1;pointerEvents=1;dashed=0;fillColor=#036897;strokeColor=#ffffff;strokeWidth=2;verticalLabelPosition=bottom;verticalAlign=top;align=center;outlineConnect=0;" parent="1" vertex="1">
          <mxGeometry x="260" y="601" width="140" height="73.5" as="geometry" />
        </mxCell>
        <mxCell id="xFIkCCg_5AFE3bHfhWyh-33" value="&lt;span style=&quot;&quot;&gt;&lt;font style=&quot;font-size: 14px&quot;&gt;&lt;b&gt;QNAP TS-253D&lt;/b&gt;&lt;/font&gt;&lt;/span&gt;" style="rounded=0;whiteSpace=wrap;html=1;align=center;" parent="1" vertex="1">
          <mxGeometry x="430.5" y="600" width="200" height="80" as="geometry" />
        </mxCell>
        <mxCell id="qOYS4bg1YTJCPEo-Tq0f-30" value="" style="endArrow=none;html=1;strokeColor=#00ff00;entryX=0.5;entryY=1;entryDx=0;entryDy=0;fillColor=#008a00;" edge="1" parent="1" target="xFIkCCg_5AFE3bHfhWyh-33">
          <mxGeometry width="50" height="50" relative="1" as="geometry">
            <mxPoint x="531" y="920" as="sourcePoint" />
            <mxPoint x="529.5" y="698" as="targetPoint" />
          </mxGeometry>
        </mxCell>
        <mxCell id="qOYS4bg1YTJCPEo-Tq0f-31" value="" style="endArrow=none;html=1;strokeColor=#00ff00;entryX=0.5;entryY=1;entryDx=0;entryDy=0;fillColor=#008a00;" edge="1" parent="1">
          <mxGeometry width="50" height="50" relative="1" as="geometry">
            <mxPoint x="775" y="920" as="sourcePoint" />
            <mxPoint x="775" y="680" as="targetPoint" />
          </mxGeometry>
        </mxCell>
        <mxCell id="qOYS4bg1YTJCPEo-Tq0f-32" value="" style="endArrow=none;html=1;strokeColor=#00ff00;entryX=0.5;entryY=1;entryDx=0;entryDy=0;fillColor=#008a00;" edge="1" parent="1">
          <mxGeometry width="50" height="50" relative="1" as="geometry">
            <mxPoint x="1010" y="920" as="sourcePoint" />
            <mxPoint x="1009.25" y="680" as="targetPoint" />
          </mxGeometry>
        </mxCell>
        <mxCell id="qOYS4bg1YTJCPEo-Tq0f-33" value="" style="endArrow=none;html=1;strokeColor=#00ff00;entryX=0.5;entryY=1;entryDx=0;entryDy=0;fillColor=#008a00;" edge="1" parent="1">
          <mxGeometry width="50" height="50" relative="1" as="geometry">
            <mxPoint x="1250" y="920" as="sourcePoint" />
            <mxPoint x="1250" y="680" as="targetPoint" />
          </mxGeometry>
        </mxCell>
        <mxCell id="qOYS4bg1YTJCPEo-Tq0f-34" value="" style="endArrow=none;html=1;fillColor=#e51400;strokeColor=#ff0000;" edge="1" parent="1">
          <mxGeometry width="50" height="50" relative="1" as="geometry">
            <mxPoint x="350" y="600" as="sourcePoint" />
            <mxPoint x="351" y="280" as="targetPoint" />
          </mxGeometry>
        </mxCell>
        <mxCell id="qOYS4bg1YTJCPEo-Tq0f-35" value="" style="endArrow=none;html=1;exitX=0.208;exitY=0;exitDx=0;exitDy=0;strokeColor=#0000ff;exitPerimeter=0;" edge="1" parent="1">
          <mxGeometry width="50" height="50" relative="1" as="geometry">
            <mxPoint x="711.5" y="600" as="sourcePoint" />
            <mxPoint x="709.5" y="400" as="targetPoint" />
          </mxGeometry>
        </mxCell>
        <mxCell id="qOYS4bg1YTJCPEo-Tq0f-36" value="" style="endArrow=none;html=1;exitX=0.208;exitY=0;exitDx=0;exitDy=0;strokeColor=#0000ff;exitPerimeter=0;" edge="1" parent="1">
          <mxGeometry width="50" height="50" relative="1" as="geometry">
            <mxPoint x="952" y="600" as="sourcePoint" />
            <mxPoint x="950" y="400" as="targetPoint" />
          </mxGeometry>
        </mxCell>
        <mxCell id="qOYS4bg1YTJCPEo-Tq0f-37" value="" style="endArrow=none;html=1;exitX=0.208;exitY=0;exitDx=0;exitDy=0;strokeColor=#0000ff;exitPerimeter=0;" edge="1" parent="1">
          <mxGeometry width="50" height="50" relative="1" as="geometry">
            <mxPoint x="1192" y="600" as="sourcePoint" />
            <mxPoint x="1190" y="400" as="targetPoint" />
          </mxGeometry>
        </mxCell>
        <mxCell id="qOYS4bg1YTJCPEo-Tq0f-38" value="" style="endArrow=none;html=1;fillColor=#e51400;strokeColor=#ff0000;" edge="1" parent="1">
          <mxGeometry width="50" height="50" relative="1" as="geometry">
            <mxPoint x="550" y="600" as="sourcePoint" />
            <mxPoint x="551" y="280" as="targetPoint" />
          </mxGeometry>
        </mxCell>
        <mxCell id="qOYS4bg1YTJCPEo-Tq0f-39" value="" style="endArrow=none;html=1;fillColor=#e51400;strokeColor=#ff0000;" edge="1" parent="1">
          <mxGeometry width="50" height="50" relative="1" as="geometry">
            <mxPoint x="790" y="601.5" as="sourcePoint" />
            <mxPoint x="791" y="281.5" as="targetPoint" />
          </mxGeometry>
        </mxCell>
        <mxCell id="qOYS4bg1YTJCPEo-Tq0f-40" value="" style="endArrow=none;html=1;fillColor=#e51400;strokeColor=#ff0000;" edge="1" parent="1">
          <mxGeometry width="50" height="50" relative="1" as="geometry">
            <mxPoint x="1030" y="600" as="sourcePoint" />
            <mxPoint x="1031" y="280" as="targetPoint" />
          </mxGeometry>
        </mxCell>
        <mxCell id="qOYS4bg1YTJCPEo-Tq0f-41" value="" style="endArrow=none;html=1;fillColor=#e51400;strokeColor=#ff0000;" edge="1" parent="1">
          <mxGeometry width="50" height="50" relative="1" as="geometry">
            <mxPoint x="1270" y="600" as="sourcePoint" />
            <mxPoint x="1271" y="280" as="targetPoint" />
          </mxGeometry>
        </mxCell>
        <mxCell id="qOYS4bg1YTJCPEo-Tq0f-42" value="&lt;font style=&quot;font-size: 18px&quot;&gt;.140&lt;/font&gt;" style="text;html=1;strokeColor=none;fillColor=none;align=left;verticalAlign=middle;whiteSpace=wrap;rounded=0;" vertex="1" parent="1">
          <mxGeometry x="480" y="410" width="51" height="20" as="geometry" />
        </mxCell>
        <mxCell id="qOYS4bg1YTJCPEo-Tq0f-43" value="&lt;font style=&quot;font-size: 18px&quot;&gt;.140&lt;/font&gt;" style="text;html=1;strokeColor=none;fillColor=none;align=left;verticalAlign=middle;whiteSpace=wrap;rounded=0;" vertex="1" parent="1">
          <mxGeometry x="560.5" y="290" width="51" height="20" as="geometry" />
        </mxCell>
        <mxCell id="qOYS4bg1YTJCPEo-Tq0f-44" value="&lt;font style=&quot;font-size: 18px&quot;&gt;.141&lt;/font&gt;" style="text;html=1;strokeColor=none;fillColor=none;align=left;verticalAlign=middle;whiteSpace=wrap;rounded=0;" vertex="1" parent="1">
          <mxGeometry x="777.5" y="886" width="51" height="20" as="geometry" />
        </mxCell>
        <mxCell id="qOYS4bg1YTJCPEo-Tq0f-45" value="&lt;font style=&quot;font-size: 18px&quot;&gt;.142&lt;/font&gt;" style="text;html=1;strokeColor=none;fillColor=none;align=left;verticalAlign=middle;whiteSpace=wrap;rounded=0;" vertex="1" parent="1">
          <mxGeometry x="1022" y="886" width="51" height="20" as="geometry" />
        </mxCell>
        <mxCell id="qOYS4bg1YTJCPEo-Tq0f-46" value="&lt;font style=&quot;font-size: 18px&quot;&gt;.143&lt;/font&gt;" style="text;html=1;strokeColor=none;fillColor=none;align=left;verticalAlign=middle;whiteSpace=wrap;rounded=0;" vertex="1" parent="1">
          <mxGeometry x="1260" y="886" width="51" height="20" as="geometry" />
        </mxCell>
        <mxCell id="qOYS4bg1YTJCPEo-Tq0f-47" value="&lt;font style=&quot;font-size: 18px&quot;&gt;.140&lt;/font&gt;" style="text;html=1;strokeColor=none;fillColor=none;align=left;verticalAlign=middle;whiteSpace=wrap;rounded=0;" vertex="1" parent="1">
          <mxGeometry x="541" y="886" width="51" height="20" as="geometry" />
        </mxCell>
        <mxCell id="qOYS4bg1YTJCPEo-Tq0f-48" value="&lt;b style=&quot;font-size: 14px;&quot;&gt;SSH-Server&lt;/b&gt;" style="rounded=0;whiteSpace=wrap;html=1;align=center;" vertex="1" parent="1">
          <mxGeometry x="1880" y="600" width="200" height="80" as="geometry" />
        </mxCell>
        <mxCell id="qOYS4bg1YTJCPEo-Tq0f-51" value="" style="endArrow=none;html=1;exitX=0.208;exitY=0;exitDx=0;exitDy=0;strokeColor=#0000ff;exitPerimeter=0;" edge="1" parent="1">
          <mxGeometry width="50" height="50" relative="1" as="geometry">
            <mxPoint x="1682" y="601" as="sourcePoint" />
            <mxPoint x="1680" y="401" as="targetPoint" />
          </mxGeometry>
        </mxCell>
        <mxCell id="qOYS4bg1YTJCPEo-Tq0f-52" value="" style="endArrow=none;html=1;exitX=0.208;exitY=0;exitDx=0;exitDy=0;strokeColor=#0000ff;exitPerimeter=0;" edge="1" parent="1">
          <mxGeometry width="50" height="50" relative="1" as="geometry">
            <mxPoint x="1922" y="597.75" as="sourcePoint" />
            <mxPoint x="1920" y="397.75" as="targetPoint" />
          </mxGeometry>
        </mxCell>
        <mxCell id="qOYS4bg1YTJCPEo-Tq0f-53" value="" style="endArrow=none;html=1;fillColor=#e51400;strokeColor=#ff0000;" edge="1" parent="1">
          <mxGeometry width="50" height="50" relative="1" as="geometry">
            <mxPoint x="1990" y="601" as="sourcePoint" />
            <mxPoint x="1991" y="281" as="targetPoint" />
          </mxGeometry>
        </mxCell>
        <mxCell id="qOYS4bg1YTJCPEo-Tq0f-54" value="&lt;font style=&quot;font-size: 18px&quot;&gt;.130&lt;/font&gt;" style="text;html=1;strokeColor=none;fillColor=none;align=left;verticalAlign=middle;whiteSpace=wrap;rounded=0;" vertex="1" parent="1">
          <mxGeometry x="2010" y="290" width="51" height="20" as="geometry" />
        </mxCell>
        <mxCell id="qOYS4bg1YTJCPEo-Tq0f-55" value="&lt;font style=&quot;font-size: 18px&quot;&gt;.130&lt;/font&gt;" style="text;html=1;strokeColor=none;fillColor=none;align=left;verticalAlign=middle;whiteSpace=wrap;rounded=0;" vertex="1" parent="1">
          <mxGeometry x="1930" y="410" width="51" height="20" as="geometry" />
        </mxCell>
        <mxCell id="qOYS4bg1YTJCPEo-Tq0f-57" value="" style="endArrow=none;html=1;fillColor=#e51400;strokeColor=#ff0000;" edge="1" parent="1">
          <mxGeometry width="50" height="50" relative="1" as="geometry">
            <mxPoint x="1499.5" y="597.75" as="sourcePoint" />
            <mxPoint x="1500" y="280" as="targetPoint" />
          </mxGeometry>
        </mxCell>
        <mxCell id="qOYS4bg1YTJCPEo-Tq0f-58" value="&lt;font style=&quot;font-size: 18px&quot;&gt;.132&lt;/font&gt;" style="text;html=1;strokeColor=none;fillColor=none;align=left;verticalAlign=middle;whiteSpace=wrap;rounded=0;" vertex="1" parent="1">
          <mxGeometry x="1510" y="290" width="51" height="20" as="geometry" />
        </mxCell>
        <mxCell id="qOYS4bg1YTJCPEo-Tq0f-59" value="&lt;font style=&quot;font-size: 18px&quot;&gt;.131&lt;/font&gt;" style="text;html=1;strokeColor=none;fillColor=none;align=left;verticalAlign=middle;whiteSpace=wrap;rounded=0;" vertex="1" parent="1">
          <mxGeometry x="1770" y="290" width="51" height="20" as="geometry" />
        </mxCell>
        <mxCell id="qOYS4bg1YTJCPEo-Tq0f-60" value="&lt;font style=&quot;font-size: 18px&quot;&gt;.131&lt;/font&gt;" style="text;html=1;strokeColor=none;fillColor=none;align=left;verticalAlign=middle;whiteSpace=wrap;rounded=0;" vertex="1" parent="1">
          <mxGeometry x="1690" y="410" width="51" height="20" as="geometry" />
        </mxCell>
        <mxCell id="qOYS4bg1YTJCPEo-Tq0f-61" value="" style="endArrow=none;html=1;fillColor=#e51400;strokeColor=#ff0000;" edge="1" parent="1">
          <mxGeometry width="50" height="50" relative="1" as="geometry">
            <mxPoint x="1750" y="597.75" as="sourcePoint" />
            <mxPoint x="1750.5" y="280" as="targetPoint" />
          </mxGeometry>
        </mxCell>
      </root>
    </mxGraphModel>
  </diagram>
</mxfile>
